<svg xmlns="http://www.w3.org/2000/svg" viewBox="0 0 36 36" xml:space="preserve">
	<path d="M6.8,13c-0.1,0-0.2,0.1-0.2,0.3v15.2c0,0.1,0.1,0.3,0.3,0.3h4.8c0.1,0,0.3-0.1,0.3-0.3V13.3 c0-0.1-0.1-0.3-0.3-0.3H6.8z M23.8,12.5c-2,0-3.3,1-4.2,2v-1.2c0-0.1-0.1-0.3-0.3-0.3h-4.5c-0.1,0-0.3,0.1-0.3,0.3v15.2 c0,0.1,0.1,0.3,0.3,0.3h4.8c0.1,0,0.3-0.1,0.3-0.3V20c0-0.8,0.2-1.5,0.6-2c0.3-0.5,0.9-0.9,1.4-0.9h0.5c0.5,0,1,0.3,1.4,0.9 c0.3,0.5,0.6,1.3,0.6,2v8.5c0,0.1,0.1,0.3,0.3,0.3h4.8c0.1,0,0.3-0.1,0.3-0.3v-9.9c0-1.8-0.3-3.4-1.3-4.5 C27.4,13.1,25.9,12.5,23.8,12.5L23.8,12.5z M9.1,5.2C7.4,5.2,6,6.6,6,8.3s1.4,3.1,3.1,3.1s3.1-1.4,3.1-3.1S10.8,5.2,9.1,5.2L9.1,5.2 z"/>
</svg>
