<?xml version="1.0" encoding="UTF-8"?>
<svg width="16" height="21" viewBox="0 0 16 21" version="1.1" xmlns="http://www.w3.org/2000/svg" xmlns:xlink="http://www.w3.org/1999/xlink">
        <path d="M2.4,10.3c-0.8-1.2-1.1-2.6-0.9-4c0.2-1.4,1-2.6,2.2-3.4c0.9-0.6,1.9-1,3-1c0.3,0,0.6,0,0.9,0.1 C9,2.2,10.2,3,11,4.2s1.1,2.6,0.9,4c-0.2,1.4-1,2.6-2.2,3.4C7.3,13.3,4,12.7,2.4,10.3 M15.9,19.4L11,12.3c1.1-1,1.9-2.4,2.2-3.9 c0.3-1.8-0.1-3.5-1.1-5c-2.1-3-6.2-3.8-9.2-1.6c-1.4,1-2.4,2.6-2.7,4.3c-0.3,1.8,0.1,3.5,1.1,5c1,1.5,2.5,2.4,4.2,2.7 c0.4,0.1,0.8,0.1,1.2,0.1c1.1,0,2.2-0.3,3.2-0.9l4.9,7.2c0.1,0.2,0.3,0.3,0.6,0.3c0.1,0,0.3,0,0.4-0.1C16,20.2,16.1,19.7,15.9,19.4"/>
        <path d="M3.2,4.8c-0.7,1-0.8,2.1-0.4,2.4C3.3,7.6,4.2,7,4.8,6c0.7-1,0.8-2.1,0.4-2.5 C4.7,3.2,3.8,3.8,3.2,4.8"/>
</svg>