<svg xmlns="http://www.w3.org/2000/svg">
    <symbol id="search" viewBox="0 0 16 21">
        <path d="M2.4,10.3c-0.8-1.2-1.1-2.6-0.9-4c0.2-1.4,1-2.6,2.2-3.4c0.9-0.6,1.9-1,3-1c0.3,0,0.6,0,0.9,0.1 C9,2.2,10.2,3,11,4.2s1.1,2.6,0.9,4c-0.2,1.4-1,2.6-2.2,3.4C7.3,13.3,4,12.7,2.4,10.3 M15.9,19.4L11,12.3c1.1-1,1.9-2.4,2.2-3.9 c0.3-1.8-0.1-3.5-1.1-5c-2.1-3-6.2-3.8-9.2-1.6c-1.4,1-2.4,2.6-2.7,4.3c-0.3,1.8,0.1,3.5,1.1,5c1,1.5,2.5,2.4,4.2,2.7 c0.4,0.1,0.8,0.1,1.2,0.1c1.1,0,2.2-0.3,3.2-0.9l4.9,7.2c0.1,0.2,0.3,0.3,0.6,0.3c0.1,0,0.3,0,0.4-0.1C16,20.2,16.1,19.7,15.9,19.4"/>
        <path d="M3.2,4.8c-0.7,1-0.8,2.1-0.4,2.4C3.3,7.6,4.2,7,4.8,6c0.7-1,0.8-2.1,0.4-2.5 C4.7,3.2,3.8,3.8,3.2,4.8"/>
    </symbol>
    <symbol id="twitter" viewBox="0 0 36 36">
        <path d="M32,9.7c-1,0.5-2.1,0.8-3.3,0.9c1.2-0.7,2.1-1.8,2.5-3.2c-1.1,0.7-2.3,1.1-3.6,1.4 C26.5,7.7,25,7,23.4,7c-3.2,0-5.7,2.6-5.7,5.7c0,0.5,0,0.9,0.1,1.3C13,13.8,8.8,11.5,6,8c-0.5,0.8-0.8,1.8-0.8,2.9 c0,2,1,3.7,2.6,4.7c-0.9,0-1.8-0.3-2.6-0.7c0,0,0,0,0,0.1c0,2.8,2,5.1,4.6,5.6c-0.5,0.1-1,0.2-1.5,0.2c-0.4,0-0.7,0-1.1-0.1 c0.7,2.3,2.9,3.9,5.4,4c-2,1.5-4.4,2.4-7.1,2.4c-0.5,0-0.9,0-1.4-0.1c2.5,1.6,5.6,2.6,8.8,2.6c10.6,0,16.4-8.7,16.4-16.2 c0-0.2,0-0.5,0-0.7C30.3,11.8,31.2,10.8,32,9.7z"/>
    </symbol>
    <symbol id="linkedin" viewBox="0 0 36 36">
        <path d="M6.8,13c-0.1,0-0.2,0.1-0.2,0.3v15.2c0,0.1,0.1,0.3,0.3,0.3h4.8c0.1,0,0.3-0.1,0.3-0.3V13.3 c0-0.1-0.1-0.3-0.3-0.3H6.8z M23.8,12.5c-2,0-3.3,1-4.2,2v-1.2c0-0.1-0.1-0.3-0.3-0.3h-4.5c-0.1,0-0.3,0.1-0.3,0.3v15.2 c0,0.1,0.1,0.3,0.3,0.3h4.8c0.1,0,0.3-0.1,0.3-0.3V20c0-0.8,0.2-1.5,0.6-2c0.3-0.5,0.9-0.9,1.4-0.9h0.5c0.5,0,1,0.3,1.4,0.9 c0.3,0.5,0.6,1.3,0.6,2v8.5c0,0.1,0.1,0.3,0.3,0.3h4.8c0.1,0,0.3-0.1,0.3-0.3v-9.9c0-1.8-0.3-3.4-1.3-4.5 C27.4,13.1,25.9,12.5,23.8,12.5L23.8,12.5z M9.1,5.2C7.4,5.2,6,6.6,6,8.3s1.4,3.1,3.1,3.1s3.1-1.4,3.1-3.1S10.8,5.2,9.1,5.2L9.1,5.2 z"/>
    </symbol>
    <symbol id="facebook" viewBox="0 0 36 36">
        <path d="M28.7,6H7.3C6.6,6,6,6.7,6,7.3v21.2c0,0.8,0.6,1.3,1.3,1.3h11.5v-9.3h-3.2V17h3.2v-2.7 c0-3.1,1.9-4.7,4.7-4.7c1.3,0,2.5,0.1,2.8,0.2V13h-1.9c-1.5,0-1.8,0.8-1.8,1.8v2.3h3.6l-0.5,3.6h-3.2V30h6.1c0.8,0,1.3-0.6,1.3-1.3 V7.3C30,6.7,29.4,6,28.7,6"/>
    </symbol>
    <symbol id="caret" viewBox="0 0 12 7">
        <path d="M6.1,6.8l5.7-5.7l-0.9-0.9L6.1,5L1.3,0.2L0.4,1.1L6.1,6.8z"/>
    </symbol>
</svg>
