<svg xmlns="http://www.w3.org/2000/svg" viewBox="0 0 36 36" xml:space="preserve">
	<path d="M32,9.7c-1,0.5-2.1,0.8-3.3,0.9c1.2-0.7,2.1-1.8,2.5-3.2c-1.1,0.7-2.3,1.1-3.6,1.4 C26.5,7.7,25,7,23.4,7c-3.2,0-5.7,2.6-5.7,5.7c0,0.5,0,0.9,0.1,1.3C13,13.8,8.8,11.5,6,8c-0.5,0.8-0.8,1.8-0.8,2.9 c0,2,1,3.7,2.6,4.7c-0.9,0-1.8-0.3-2.6-0.7c0,0,0,0,0,0.1c0,2.8,2,5.1,4.6,5.6c-0.5,0.1-1,0.2-1.5,0.2c-0.4,0-0.7,0-1.1-0.1 c0.7,2.3,2.9,3.9,5.4,4c-2,1.5-4.4,2.4-7.1,2.4c-0.5,0-0.9,0-1.4-0.1c2.5,1.6,5.6,2.6,8.8,2.6c10.6,0,16.4-8.7,16.4-16.2 c0-0.2,0-0.5,0-0.7C30.3,11.8,31.2,10.8,32,9.7z"/>
</svg>
